HIERARCHY
ROOT pelvis
{
  OFFSET 0 100 0
  CHANNELS 6 Xposition Yposition Zposition Zrotation Xrotation Yrotation
  JOINT pelvis_right_femur
  {
    OFFSET -10.78128 -3.44521 -0.5502486
    CHANNELS 3 Zrotation Xrotation Yrotation
    JOINT right_femur_tibia
    {
      OFFSET -0.8047443 -44.0398 -0.1307829
      CHANNELS 3 Zrotation Xrotation Yrotation
      JOINT right_tibia_foot
      {
        OFFSET 3.006224 -47.83518 -5
        CHANNELS 3 Zrotation Xrotation Yrotation
        End Site
        {
          OFFSET 0 -5 15
        }
      }
    }
  }
  JOINT pelvis_left_femur
  {
    OFFSET 10.78128 -3.44521 -0.5502486
    CHANNELS 3 Zrotation Xrotation Yrotation
    JOINT left_femur_tibia
    {
      OFFSET 0.8047443 -44.0398 -0.1307829
      CHANNELS 3 Zrotation Xrotation Yrotation
      JOINT left_tibia_foot
      {
        OFFSET -4.370144 -48.10324 -4.275266
        CHANNELS 3 Zrotation Xrotation Yrotation
        End Site
        {
          OFFSET 0 -5 15
        }
      }
    }
  }
  JOINT pelvis_spine1
  {
    OFFSET 0 6.468898 -3.129235
    CHANNELS 3 Zrotation Xrotation Yrotation
    JOINT spine1
    {
      OFFSET 0 23.15396 4.99043
      CHANNELS 3 Zrotation Xrotation Yrotation
      JOINT spine2
      {
        OFFSET 0 20.79997 -5.064912
        CHANNELS 3 Zrotation Xrotation Yrotation
        JOINT neck
        {
          OFFSET 0 14.38658 9.616178
          CHANNELS 3 Zrotation Xrotation Yrotation
          End Site
          {
            OFFSET 0 20 0
          }
        }
      }
      JOINT right_manubrium
      {
        OFFSET -5.722621 16.35077 3.967754
        CHANNELS 3 Zrotation Xrotation Yrotation
        JOINT right_clavicle
        {
          OFFSET -13.16364 1.694482 -4.693211
          CHANNELS 3 Zrotation Xrotation Yrotation
          JOINT right_humerus
          {
            OFFSET -28.5034 -0.3100689 -2.792744
            CHANNELS 3 Zrotation Xrotation Yrotation
            JOINT right_radius
            {
              OFFSET -25.15693 0.02248979 -1.271978
              CHANNELS 3 Zrotation Xrotation Yrotation
              End Site
              {
                OFFSET -15 0 0
              }
            }
          }
        }
      }
      JOINT left_manubrium
      {
        OFFSET 5.722621 16.35077 3.967754
        CHANNELS 3 Zrotation Xrotation Yrotation
        JOINT left_clavicle
        {
          OFFSET 13.16364 1.694482 -4.693211
          CHANNELS 3 Zrotation Xrotation Yrotation
          JOINT left_humerus
          {
            OFFSET 29.39168 -1.063119 -2.237045
            CHANNELS 3 Zrotation Xrotation Yrotation
            JOINT left_radius
            {
              OFFSET 24.59957 -0.9528479 0.9047498
              CHANNELS 3 Zrotation Xrotation Yrotation
              End Site
              {
                OFFSET 15 -0 -0
              }
            }
          }
        }
      }
    }
  }
}
MOTION
Frames: 17
Frame Time: 0.0416666666667
0 103.5113 0 2.205594 -1.153311 0.2816973 1.198581 -10.0671 8.655041 -0 33.79024 -0 -5.250027 -17.84947 -2.20452 -8.066513 10.09905 -23.45234 -0 5.217624 -0 7.639296 -16.18267 26.51749 -4.35759 -5.058447 4.982279 2.031326 9.202327 -7.729781 0.8339621 22.80349 7.17472 3.257077 -23.10618 8.799697 6.358926 -19.72974 11.57067 86.33746 35.95545 -19.83146 -0 0 16.18716 -7.575246 8.253408 4.611294 5.530643 -19.51156 -1.692072 -94.72007 29.73768 22.82057 0 0 -16.12043 3.531904 17.89625 9.519804
0.3379345 103.4033 1.43286 2.110467 -0.9540042 0.4897449 1.360588 -10.94285 8.41403 -0 32.17297 -0 -5.260869 -17.26742 -1.945556 -7.996309 10.24725 -23.23089 -0 5.447174 -0 7.418467 -16.48883 26.22263 -4.327672 -4.892317 4.977906 2.127501 9.150698 -7.723933 0.8508287 22.69656 7.193131 3.289955 -23.23707 8.812517 6.313506 -19.6164 11.5563 86.38371 35.95105 -19.95651 -0 0 15.96069 -7.610782 8.306662 4.622168 5.651835 -19.61426 -1.688615 -94.50077 29.67951 22.47485 0 0 -16.61563 3.640546 17.79551 9.42294
0.6852016 103.2245 3.02586 1.992482 -0.6636453 0.6753115 1.546978 -12.08611 8.057805 -0 29.63372 -0 -5.270535 -16.42931 -1.51977 -7.918024 10.44376 -22.89338 -0 5.836828 -0 7.078763 -16.89661 25.77078 -4.292136 -4.678339 4.984228 2.259564 9.075206 -7.708965 0.8732124 22.55104 7.217243 3.336117 -23.40957 8.825141 6.240972 -19.44561 11.53144 86.46296 35.94405 -20.1429 -0 0 15.62557 -7.662943 8.386658 4.637235 5.826709 -19.76244 -1.684637 -94.18375 29.5921 21.96937 0 0 -17.31403 3.791496 17.65289 9.283802
1.044511 102.9586 4.830893 1.862392 -0.2923281 0.844505 1.732405 -13.37533 7.59994 -0 26.24069 -0 -5.285874 -15.3825 -0.9343588 -7.840384 10.66757 -22.44088 -0 6.430456 -0 6.609563 -17.35295 25.15648 -4.2487 -4.437848 5.002845 2.417382 8.978811 -7.685554 0.8974953 22.37778 7.245271 3.391826 -23.60816 8.833244 6.14236 -19.22031 11.49579 86.57985 35.93434 -20.38513 -0 0 15.19092 -7.732186 8.493555 4.657869 6.040453 -19.94631 -1.682796 -93.78684 29.47477 21.33222 0 0 -18.16442 3.9729 17.47284 9.114457
1.416606 102.6037 6.897109 1.724731 0.1410786 1.006879 1.903235 -14.64829 7.065558 -0 22.2144 -0 -5.32282 -14.20807 -0.2273352 -7.763001 10.88819 -21.87527 -0 7.312394 -0 5.987897 -17.76912 24.36846 -4.183744 -4.195014 5.027956 2.586498 8.866137 -7.660053 0.9169774 22.19094 7.275836 3.450727 -23.81428 8.831015 6.022558 -18.94554 11.4504 86.74 35.92239 -20.67341 -0 0 14.67085 -7.821108 8.628796 4.68854 6.26318 -20.14765 -1.689285 -93.33982 29.32705 20.61601 0 0 -19.08135 4.166245 17.25822 8.938678
1.798831 102.1798 9.271754 1.579637 0.6105064 1.174865 2.056866 -15.69826 6.489252 -0 17.89466 -0 -5.40126 -13.01682 0.5410088 -7.678038 11.06456 -21.19693 -0 8.611802 -0 5.179642 -18.0204 23.38935 -4.073574 -3.977796 5.048013 2.748234 8.743044 -7.643423 0.9219971 22.0081 7.30778 3.50405 -24.00571 8.810724 5.889395 -18.6272 11.39724 86.95082 35.9094 -20.99468 -0 0 14.08243 -7.934637 8.795448 4.736679 6.451301 -20.34076 -1.713912 -92.88187 29.14949 19.89393 0 0 -19.9483 4.346929 17.01036 8.790708
2.185754 101.7276 11.99936 1.426292 1.087188 1.362104 2.198216 -16.33055 5.905959 -0 13.62775 -0 -5.535155 -11.91881 1.30971 -7.575949 11.15079 -20.40838 -0 10.45194 -0 4.162279 -17.98447 22.21342 -3.895827 -3.810094 5.052864 2.88477 8.616099 -7.645224 0.9035908 21.84612 7.339549 3.543279 -24.16139 8.764756 5.751326 -18.27282 11.3394 87.21615 35.89667 -21.333 -0 0 13.44476 -8.078697 8.996169 4.810233 6.562794 -20.50054 -1.766097 -92.45047 28.94426 19.23807 0 0 -20.65424 4.491914 16.73062 8.702892
2.571843 101.2988 15.11677 1.267704 1.539621 1.579581 2.331677 -16.41208 5.342386 -0 9.661905 -0 -5.725653 -10.99768 2.035824 -7.452211 11.08954 -19.5187 -0 12.90557 -0 2.949105 -17.57894 20.86746 -3.642427 -3.702209 5.043825 2.983743 8.493529 -7.665335 0.8573567 21.71793 7.367836 3.562677 -24.26478 8.68695 5.61582 -17.8942 11.28269 87.52752 35.88549 -21.66562 -0 0 12.78105 -8.260624 9.231222 4.916246 6.572553 -20.60994 -1.849891 -92.07256 28.71423 18.70055 0 0 -21.12957 4.586876 16.42169 8.693281
2.954626 100.9435 18.64328 1.116045 1.923652 1.829333 2.451905 -15.85126 4.816792 -0 6.136292 -0 -5.960765 -10.3192 2.696219 -7.310546 10.78006 -18.54413 -0 16.01263 -0 1.595406 -16.75949 19.41953 -3.324879 -3.647035 5.042556 3.037296 8.388486 -7.687109 0.7842005 21.63499 7.385459 3.559168 -24.29997 8.570452 5.490242 -17.51115 11.23887 87.85604 35.87846 -21.95283 -0 0 12.12459 -8.493789 9.498759 5.063307 6.474088 -20.65931 -1.961881 -91.76682 28.46123 18.31636 0 0 -21.34836 4.625726 16.08718 8.763958
3.336692 100.7018 22.569 0.9956156 2.175405 2.097307 2.539927 -14.5592 4.342923 -0 3.116275 -0 -6.218019 -9.94896 3.281148 -7.160662 10.05621 -17.50638 -0 19.81287 -0 0.1896633 -15.50416 17.9738 -2.972601 -3.621506 5.093237 3.039224 8.321001 -7.675806 0.689164 21.61065 7.380359 3.531178 -24.24691 8.405481 5.382983 -17.15322 11.22716 88.15027 35.88089 -22.13208 -0 0 11.52234 -8.801177 9.795873 5.264223 6.274047 -20.64259 -2.091772 -91.54923 28.18489 18.11369 0 0 -21.31394 4.606907 15.73073 8.905369
3.724826 100.6018 26.85082 0.9364368 2.228669 2.351756 2.571312 -12.46305 3.931726 -0 0.6174631 -0 -6.47036 -9.943136 3.788969 -7.009251 8.734886 -16.42942 -0 24.32259 -0 -1.171487 -13.81715 16.64372 -2.622718 -3.595884 5.246788 2.985013 8.312169 -7.590786 0.579389 21.65741 7.339267 3.478627 -24.08589 8.182412 5.301348 -16.85317 11.2681 88.35049 35.89914 -22.1338 -0 0 11.02548 -9.209246 10.11852 5.533187 5.987076 -20.55684 -2.22595 -91.43184 27.88368 18.11276 0 0 -21.04722 4.531776 15.35582 9.101984
4.126469 100.6608 31.42119 0.9615675 2.046657 2.551466 2.528368 -9.555115 3.589685 0 -1.388451 0 -6.691999 -10.32108 4.224151 -6.851404 6.702301 -15.33497 -0 29.45311 -0 -2.411125 -11.74992 15.51983 -2.307574 -3.547276 5.53576 2.873604 8.373547 -7.404818 0.4623023 21.78018 7.253807 3.403782 -23.80731 7.898213 5.246895 -16.63775 11.37259 88.40863 35.9365 -21.90601 -0 0 10.67566 -9.738064 10.46047 5.8805 5.633651 -20.40428 -2.351766 -91.41644 27.55702 18.3162 0 0 -20.58108 4.404859 14.96623 9.337298
4.546547 100.8819 36.20224 1.081009 1.636988 2.65931 2.400976 -5.913305 3.315897 0 -2.97663 0 -6.85595 -11.05323 4.598508 -6.670158 3.941745 -14.23885 -0 34.91386 -0 -3.476196 -9.424356 14.66651 -2.053245 -3.466466 5.963435 2.707131 8.501493 -7.112189 0.3457657 21.97296 7.122719 3.311605 -23.41501 7.559553 5.211391 -16.52899 11.53582 88.28789 35.99041 -21.41424 -0 0 10.50837 -10.40286 10.81211 6.313257 5.242796 -20.19311 -2.457942 -91.4912 27.20604 18.70521 0 0 -19.96031 4.233594 14.56622 9.595441
4.987075 101.2418 41.11842 1.29332 1.048846 2.655291 2.180131 -1.690356 3.100212 0 -4.272634 0 -6.926502 -12.06574 4.933657 -6.440365 0.5087847 -13.14855 -0 40.1459 -0 -4.324938 -7.047783 14.13795 -1.885792 -3.357637 6.50702 2.489345 8.677359 -6.725968 0.2393451 22.21944 6.950485 3.209368 -22.92347 7.182148 5.174854 -16.55236 11.73688 87.94876 36.05153 -20.6246 -0 0 10.567 -11.22304 11.15948 6.840124 4.856425 -19.93685 -2.532385 -91.63117 26.83341 19.24219 0 0 -19.24401 4.027401 14.1605 9.860297
5.449341 101.682 46.10595 1.589022 0.3561482 2.543398 1.857101 2.918568 2.927634 0 -5.427718 0 -6.86197 -13.25844 5.258323 -6.134381 -3.496976 -12.06276 -0 44.42744 -0 -4.924632 -4.876357 13.97748 -1.830791 -3.234233 7.128117 2.22505 8.873569 -6.270802 0.1535136 22.49694 6.745017 3.105227 -22.35339 6.78688 5.110468 -16.73559 11.94499 87.35049 36.10419 -19.50299 -0 0 10.90024 -12.22115 11.48537 7.470922 4.523386 -19.65179 -2.563177 -91.80418 26.44314 19.87951 0 0 -18.49812 3.796202 13.75391 10.11645
5.936983 102.1159 51.11855 1.952519 -0.3699244 2.347414 1.429725 7.721841 2.789226 0 -6.554358 0 -6.631672 -14.53162 5.597501 -5.730487 -7.943561 -10.97474 -0 47.17025 -0 -5.263104 -3.118251 14.19554 -1.902581 -3.112795 7.7869 1.920966 9.06482 -5.774003 0.09621364 22.7827 6.515694 3.006098 -21.72765 6.393809 4.997199 -17.09383 12.13178 86.47554 36.12839 -18.03991 -0 0 11.53613 -13.40732 11.77352 8.208553 4.280507 -19.35249 -2.544042 -91.98187 26.04049 20.57294 0 0 -17.7745 3.548112 13.35069 10.35362
6.45857 102.4502 56.13078 2.360938 -1.075368 2.098923 0.9070564 12.54703 2.689481 0 -7.665177 0 -6.228014 -15.79453 5.961649 -5.221587 -12.65118 -9.88042 -0 48.11184 -0 -5.352831 -1.868765 14.75637 -2.095456 -3.010407 8.448594 1.587091 9.235178 -5.261701 0.07076921 23.05534 6.273634 2.916922 -21.071 6.020238 4.829148 -17.61685 12.27836 85.35077 36.10194 -16.27419 -0 0 12.46146 -14.76705 12.01199 9.041897 4.138454 -19.04829 -2.478888 -92.14649 25.63255 21.28879 0 0 -17.09378 3.287103 12.95379 10.57149
